<?xml version="1.0" standalone="no"?>
<!DOCTYPE svg PUBLIC "-//W3C//DTD SVG 1.1//EN" "http://www.w3.org/Graphics/SVG/1.1/DTD/svg11.dtd" >
<svg xmlns="http://www.w3.org/2000/svg">
<metadata>Generated by IcoMoon</metadata>
<defs>
<font id="icomoon" horiz-adv-x="1024">
<font-face units-per-em="1024" ascent="960" descent="-64" />
<missing-glyph horiz-adv-x="1024" />
<glyph unicode="&#x20;" horiz-adv-x="512" d="" />
<glyph unicode="&#xe900;" glyph-name="ajuda" d="M1024 448.053c0-282.74-229.206-511.947-511.947-511.947s-511.947 229.206-511.947 511.947c0 282.703 229.145 511.885 511.834 511.947 0.038 0 0.075 0 0.113 0 282.74 0 511.947-229.206 511.947-511.947zM970.605 448.053c-0.061 253.205-205.338 458.445-458.552 458.445-253.251 0-458.552-205.301-458.552-458.552 0-253.214 205.24-458.491 458.439-458.552 0.038 0 0.076 0 0.113 0 253.251 0 458.552 205.301 458.552 458.552 0 0.038 0 0.075 0 0.113zM540.459 204.895c0 15.688-12.718 28.406-28.406 28.406s-28.406-12.718-28.406-28.406c0-15.688 12.718-28.406 28.406-28.406s28.406 12.718 28.406 28.406zM485.356 429.152v-62.258c0-14.744 11.953-26.697 26.697-26.697s26.697 11.953 26.697 26.697v62.258c0.054 20.022 13.874 36.8 32.491 41.373l3.176 0.915c49.774 17.862 84.735 64.643 84.735 119.59 0 70.007-56.752 126.759-126.759 126.759-61.311 0-112.456-43.529-124.215-101.368-0.481-2.42-0.678-4.264-0.678-6.154 0-14.747 11.955-26.703 26.703-26.703 12.857 0 23.592 9.087 26.133 21.189 6.552 34.868 36.612 60.766 72.721 60.766 40.813 0 73.898-33.085 73.898-73.898 0-31.758-20.033-58.837-48.152-69.289-42.64-10.892-73.322-48.435-73.448-93.165z" />
<glyph unicode="&#xe901;" glyph-name="alerta" d="M206.293 289.6v197.227c0 167.571 135.843 303.413 303.413 303.413s303.413-135.843 303.413-303.413v-206.933c0-14.728 11.939-26.667 26.667-26.667s26.667 11.939 26.667 26.667v206.933c0 197.026-159.721 356.747-356.747 356.747s-356.747-159.721-356.747-356.747v-197.227c0-14.728 11.939-26.667 26.667-26.667s26.667 11.939 26.667 26.667zM842.667 132.8c30.722 0 55.627 24.905 55.627 55.627s-24.905 55.627-55.627 55.627h-661.333c-30.722 0-55.627-24.905-55.627-55.627s24.905-55.627 55.627-55.627zM842.667 79.467h-661.333c-60.177 0-108.96 48.783-108.96 108.96s48.783 108.96 108.96 108.96h661.333c60.177 0 108.96-48.783 108.96-108.96s-48.783-108.96-108.96-108.96zM449.28 814.827v30.933c1.399 32.291 27.918 57.941 60.427 57.941s59.028-25.649 60.422-57.815l0.004-30.953c0-14.728 11.939-26.667 26.667-26.667s26.667 11.939 26.667 26.667v30.827c-1.937 61.34-52.128 110.329-113.76 110.329s-111.823-48.989-113.756-110.152l-0.004-31.004c0-14.728 11.939-26.667 26.667-26.667s26.667 11.939 26.667 26.667zM576.533 96.64v-32.64c0-36.937-29.943-66.88-66.88-66.88s-66.88 29.943-66.88 66.88v32.64c0 14.728-11.939 26.667-26.667 26.667s-26.667-11.939-26.667-26.667v-32.64c0-66.392 53.821-120.213 120.213-120.213s120.213 53.821 120.213 120.213v32.64c0 14.728-11.939 26.667-26.667 26.667s-26.667-11.939-26.667-26.667z" />
<glyph unicode="&#xe902;" glyph-name="autorizacao" d="M882.027 553.813v-475.2c-0.181-44.169-35.938-79.926-80.089-80.107h-661.351c-44.169 0.181-79.926 35.938-80.107 80.089v613.137c0.181 44.147 35.951 79.879 80.095 80h527.798c14.728 0 26.667 11.939 26.667 26.667s-11.939 26.667-26.667 26.667h-527.573c-73.611-0.121-133.258-59.731-133.44-133.316v-613.137c0.242-73.578 59.854-133.152 133.423-133.333h661.351c73.495 0.302 132.985 59.83 133.227 133.31v475.223c0 14.728-11.939 26.667-26.667 26.667s-26.667-11.939-26.667-26.667zM393.707 285.227l-172.267 212.373c-4.921 6.407-12.585 10.496-21.204 10.496-14.728 0-26.667-11.939-26.667-26.667 0-6.679 2.455-12.784 6.512-17.462l172.559-213.3c14.622-17.594 36.512-28.714 60.998-28.714 24.095 0 45.675 10.767 60.191 27.752l533.744 656.962c4.029 4.645 6.484 10.751 6.484 17.429 0 14.728-11.939 26.667-26.667 26.667-8.619 0-16.283-4.089-21.158-10.433l-532.633-655.103c-4.751-5.811-11.919-9.491-19.947-9.491s-15.196 3.68-19.91 9.445z" />
<glyph unicode="&#xe903;" glyph-name="aviso" d="M1017.067 448.853c0-279.353-226.46-505.813-505.813-505.813s-505.813 226.46-505.813 505.813c0 279.315 226.399 505.752 505.701 505.813 0.038 0 0.075 0 0.113 0 279.353 0 505.813-226.46 505.813-505.813zM963.733 448.853c-0.061 249.852-202.62 452.373-452.48 452.373-249.898 0-452.48-202.582-452.48-452.48 0-249.86 202.521-452.419 452.368-452.48 0.037 0 0.075 0 0.112 0 249.898 0 452.48 202.582 452.48 452.48 0 0.037 0 0.075 0 0.112zM485.653 695.36v-320c0-14.728 11.939-26.667 26.667-26.667s26.667 11.939 26.667 26.667v320c0 14.728-11.939 26.667-26.667 26.667s-26.667-11.939-26.667-26.667zM540.16 215.68c-0.061 15.447-12.597 27.946-28.053 27.946-15.493 0-28.053-12.56-28.053-28.053 0-15.456 12.499-27.992 27.941-28.053 15.499 0 28.059 12.56 28.059 28.053z" />
<glyph unicode="&#xe904;" glyph-name="busca" d="M309.333 265.067l-112.427-194.347c-3.297-6.354-5.231-13.872-5.231-21.842 0-26.627 21.586-48.213 48.213-48.213 16.862 0 31.702 8.656 40.319 21.766l112.326 194.422c3.039 6.138 4.817 13.365 4.817 21.007 0 26.627-21.586 48.213-48.213 48.213-16.464 0-31-8.252-39.699-20.846zM438.933 190.4l-112.427-194.453c-18.189-29.14-50.079-48.24-86.43-48.24-56.083 0-101.547 45.464-101.547 101.547 0 17.674 4.515 34.294 12.455 48.768l111.948 193.712c18.257 28.771 49.944 47.589 86.025 47.589 56.083 0 101.547-45.464 101.547-101.547 0-17.372-4.362-33.725-12.051-48.024zM709.227 861.547c-33.087 19.44-72.878 30.922-115.35 30.922-127.364 0-230.613-103.249-230.613-230.613s103.249-230.613 230.613-230.613c84.914 0 159.109 45.894 199.134 114.23 20.009 34.163 31.479 73.934 31.479 116.384 0 84.892-45.869 159.070-114.176 199.103zM847.893 515.413c-51.6-88.003-145.725-146.16-253.434-146.16-161.709 0-292.8 131.091-292.8 292.8s131.091 292.8 292.8 292.8c54.052 0 104.683-14.646 148.141-40.187 86.352-50.917 144.293-144.893 144.293-252.401 0-54.043-14.642-104.667-40.174-148.12zM440 448.533l-74.667-129.493c-2.301-3.861-3.662-8.515-3.662-13.487 0-14.728 11.939-26.667 26.667-26.667 9.88 0 18.506 5.374 23.113 13.358l74.735 129.622c2.192 3.788 3.485 8.333 3.485 13.18 0 14.728-11.939 26.667-26.667 26.667-9.756 0-18.289-5.239-22.937-13.057z" />
<glyph unicode="&#xe905;" glyph-name="cartoes" d="M58.667 687.893v-480c0-29.455 23.878-53.333 53.333-53.333h800c29.455 0 53.333 23.878 53.333 53.333v480c0 29.455-23.878 53.333-53.333 53.333h-800c-29.455 0-53.333-23.878-53.333-53.333zM5.333 687.893c0 58.91 47.756 106.667 106.667 106.667h800c58.91 0 106.667-47.756 106.667-106.667v-480c0-58.91-47.756-106.667-106.667-106.667h-800c-58.91 0-106.667 47.756-106.667 106.667zM32 581.333h960c14.728 0 26.667 11.939 26.667 26.667s-11.939 26.667-26.667 26.667h-960c-14.728 0-26.667-11.939-26.667-26.667s11.939-26.667 26.667-26.667zM32 421.333h960c14.728 0 26.667 11.939 26.667 26.667s-11.939 26.667-26.667 26.667h-960c-14.728 0-26.667-11.939-26.667-26.667s11.939-26.667 26.667-26.667z" />
<glyph unicode="&#xe906;" glyph-name="cobrancas" d="M271.36 551.467v291.2c0 26.392 21.395 47.787 47.787 47.787h338.987c13.213-0.030 25.165-5.406 33.812-14.079l252.268-252.695c8.62-8.631 13.956-20.544 13.973-33.703v-540.803c0-26.392-21.395-47.787-47.787-47.787h-591.253c-26.392 0-47.787 21.395-47.787 47.787v192c0 14.404-11.676 26.080-26.080 26.080s-26.080-11.676-26.080-26.080v-192c0-55.199 44.748-99.947 99.947-99.947h591.147c55.199 0 99.947 44.748 99.947 99.947v540.8c0 0.073 0 0.16 0 0.246 0 27.403-11.040 52.227-28.915 70.268l-252.472 252.686c-18.096 18.11-43.098 29.317-70.717 29.333h-338.99c-55.162 0-99.886-44.687-99.947-99.834v-291.206c0-14.404 11.676-26.080 26.080-26.080s26.080 11.676 26.080 26.080zM961.6 646.613h-199.893c-0.063 0-0.138 0-0.213 0-25.824 0-46.766 20.905-46.827 46.715v202.139c0 14.404-11.676 26.080-26.080 26.080s-26.080-11.676-26.080-26.080v-202.133c0-54.669 44.318-98.987 98.987-98.987h200.107c14.404 0 26.080 11.676 26.080 26.080s-11.676 26.080-26.080 26.080zM613.76 534.507v0c12.725 0 23.040-10.315 23.040-23.040v-48.64c18.139-2.22 34.639-7.143 49.819-14.388 4.443-3.504 7.921-9.802 7.921-16.911 0-11.782-9.551-21.333-21.333-21.333-1.907 0-3.756 0.25-5.516 0.72-15.234 7.651-33.354 12.174-52.525 12.233-32.019 0-50.259-12.267-50.259-34.987 0-25.067 29.76-36.8 63.040-50.24 42.027-16.96 87.573-36.16 87.573-84.693 0-44.373-28.053-74.667-78.827-82.347v-49.493c0-12.725-10.315-23.040-23.040-23.040s-23.040 10.315-23.040 23.040v47.787c-22.378 1.943-42.945 7.915-61.577 17.193-5.96 3.165-10.626 10.311-10.626 18.546 0 3.625 0.904 7.040 2.5 10.029l-0.056-0.115c3.748 6.46 10.632 10.735 18.514 10.735 3.352 0 6.523-0.773 9.345-2.15 16.534-8.922 36.306-14.27 57.311-14.451 39.736 0 60.75 13.973 60.75 37.333 0 28.587-37.333 38.507-74.667 54.293s-74.667 36.8-74.667 84.693c0 39.68 28.053 68.907 72.96 76.48v49.707c0 12.725 10.315 23.040 23.040 23.040zM33.6 316.907h256c14.404 0 26.080 11.676 26.080 26.080s-11.676 26.080-26.080 26.080h-256c-14.404 0-26.080-11.676-26.080-26.080s11.676-26.080 26.080-26.080zM137.92 421.12h256c14.404 0 26.080 11.676 26.080 26.080s-11.676 26.080-26.080 26.080h-256c-14.404 0-26.080-11.676-26.080-26.080s11.676-26.080 26.080-26.080z" />
<glyph unicode="&#xe907;" glyph-name="configuracao" d="M620.8 448c-0.303-59.446-48.563-107.52-108.052-107.52-59.676 0-108.053 48.377-108.053 108.053s48.376 108.053 108.052 108.053c0 0 0.001 0 0.001 0 59.676 0 108.053-48.377 108.053-108.053 0-0.188 0-0.375-0.001-0.562zM564.693 448c0 28.689-23.257 51.947-51.947 51.947s-51.947-23.257-51.947-51.947c0-28.689 23.257-51.947 51.947-51.947 28.643 0.061 51.84 23.295 51.84 51.947 0 0 0 0 0 0zM644.587 133.227h-0.64zM181.333 330.667h-101.12c-37.561 0.062-68.471 28.457-72.504 64.951-1.863 16.139-2.909 34.458-2.909 53.022s1.046 36.883 3.082 54.902c3.859 34.615 34.769 63.009 72.324 63.072h101.126c7.328 0.411 13.448 5.166 15.853 11.716 1.506 2.737 2.37 5.859 2.37 9.182 0 4.704-1.73 9.005-4.589 12.299l-71.234 71.337c-13.089 13.232-21.174 31.435-21.174 51.526 0 17.858 6.388 34.223 17.003 46.937 21.885 26.934 45.656 50.909 71.585 72.37 13.448 11.155 29.787 17.509 47.609 17.509 20.116 0 38.342-8.094 51.598-21.202l71.353-71.353c3.182-2.824 7.395-4.548 12.011-4.548 3.014 0 5.856 0.735 8.356 2.036 6.875 2.265 11.94 8.442 12.588 15.883l0.005 100.869c0.017 37.613 28.495 68.57 65.065 72.505 16.116 1.857 34.417 2.901 52.962 2.901s36.846-1.044 54.847-3.075c34.639-3.812 63.061-34.75 63.073-72.33v-100.695c0.411-7.328 5.166-13.448 11.716-15.853 2.754-1.505 5.892-2.367 9.232-2.367 4.67 0 8.947 1.686 12.254 4.483l71.225 71.337c13.249 13.096 31.47 21.185 51.581 21.185 17.876 0 34.259-6.392 46.989-17.014 26.923-22.005 50.9-45.915 72.351-71.981 11.255-13.49 17.662-29.878 17.662-47.762 0-20.116-8.105-38.339-21.228-51.581l-71.248-71.248c-2.844-3.188-4.582-7.415-4.582-12.049 0-2.957 0.708-5.748 1.963-8.214 0.699-1.817 0.699-1.817 1.126-3.204l-26.88-8.107 25.92 10.667c2.379-6.906 8.604-11.874 16.051-12.37l100.749-0.003c0.004 0 0.008 0 0.013 0 37.535 0 68.46-28.303 72.596-64.732 1.868-16.193 2.917-34.568 2.917-53.188s-1.048-36.995-3.089-55.069c-4.015-34.498-34.915-62.744-72.412-62.744-0.009 0-0.017 0-0.026 0h-100.692c-7.328-0.411-13.448-5.166-15.853-11.716-1.492-2.736-2.347-5.852-2.347-9.168 0-4.705 1.721-9.008 4.568-12.314l71.233-71.229c13.060-13.226 21.126-31.41 21.126-51.478 0-17.831-6.369-34.175-16.955-46.88-21.961-26.805-45.834-50.679-71.862-72.023-13.508-11.239-29.891-17.631-47.767-17.631-20.111 0-38.333 8.090-51.588 21.192l-71.246 71.246c-3.401 2.394-7.628 3.826-12.191 3.826-10.42 0-19.095-7.47-20.962-17.347l-0.021-100.826c0.001-0.142 0.002-0.31 0.002-0.479 0-37.703-28.599-68.727-65.287-72.561-16.157-1.86-34.514-2.906-53.115-2.906s-36.958 1.046-55.015 3.082c-34.54 3.914-62.852 34.815-62.852 72.329 0 0.038 0 0.076 0 0.114v100.687c-0.529 7.759-5.782 14.164-12.883 16.391-2.479 1.235-5.253 1.937-8.19 1.937-4.614 0-8.823-1.733-12.011-4.584l-71.343-71.238c-13.243-13.152-31.489-21.281-51.634-21.281-17.857 0-34.223 6.387-46.936 17.002-26.762 22.070-50.605 46.082-71.896 72.254-11.262 13.544-17.653 29.928-17.653 47.804 0 20.111 8.090 38.333 21.192 51.588l71.353 71.353c2.844 3.188 4.582 7.415 4.582 12.049 0 2.957-0.708 5.748-1.963 8.214 7.033 3.669 15.507 7.513 24.249 10.812l-24.415-10.168c-2.445 6.654-8.499 11.418-15.728 11.943zM403.093 712.107v0zM400.64 711.36l1.707 0.533h0.747zM234.667 257.6l-71.253-71.253c-2.789-3.058-4.496-7.143-4.496-11.627s1.708-8.569 4.509-11.64c19.617-23.957 40.87-45.21 64.044-64.206 3.846-3.445 7.934-5.168 12.424-5.168s8.579 1.724 11.639 4.545l71.348 71.243c13.66 12.694 32.029 20.484 52.218 20.484 41.366 0 75.094-32.705 76.737-73.668l0.005-100.842c0.011-8.698 6.609-15.852 15.074-16.74 14.123-1.637 30.403-2.567 46.9-2.567s32.777 0.93 48.79 2.741c6.529 0.765 13.072 7.901 13.077 16.566v101.12c1.648 41.112 35.376 73.817 76.742 73.817 20.189 0 38.558-7.79 52.266-20.528l71.312-71.209c3.048-2.811 7.136-4.534 11.627-4.534s8.579 1.724 11.639 4.545c23.956 19.623 45.209 40.875 64.208 64.046 3.258 3.797 4.859 7.75 4.859 12.078 0 4.606-1.813 8.788-4.764 11.872l-72.101 70.927c-12.751 13.673-20.579 32.083-20.579 52.321 0 41.4 32.758 75.149 73.768 76.741l100.838 0.004c8.679 0.061 15.805 6.632 16.74 15.070 1.634 14.11 2.562 30.372 2.562 46.85s-0.928 32.739-2.735 48.734c-0.762 6.554-7.888 13.125-16.56 13.186h-100.7c-41.158 1.521-73.947 35.253-73.947 76.644 0 20.242 7.842 38.653 20.654 52.36l71.213 71.316c2.781 3.041 4.485 7.108 4.485 11.573s-1.704 8.532-4.497 11.586c-19.637 23.941-40.888 45.192-64.045 64.206-3.854 3.423-7.939 5.131-12.423 5.131s-8.569-1.708-11.64-4.509l-70.6-71.881c-13.66-12.694-32.029-20.484-52.218-20.484-41.366 0-75.094 32.705-76.737 73.668l-0.005 101.056c-0.011 8.698-6.609 15.852-15.074 16.74-14.107 1.64-30.368 2.573-46.846 2.573s-32.739-0.932-48.732-2.747c-6.579-0.714-13.177-7.868-13.188-16.565v-100.694c-1.648-41.112-35.376-73.817-76.742-73.817-20.189 0-38.558 7.79-52.266 20.528l-71.525 71.103c-3.041 2.781-7.108 4.485-11.573 4.485s-8.532-1.704-11.586-4.497c-23.947-19.657-45.2-40.943-64.201-64.144-3.42-3.845-5.124-7.913-5.124-12.378s1.704-8.532 4.497-11.586l71.988-70.707c12.949-13.254 20.938-31.402 20.938-51.416 0-10.525-2.209-20.534-6.189-29.589-10.512-27.607-36.903-47.336-67.994-48.060l-101.207-0.002c-8.473-0.288-15.342-6.788-16.207-15.074-1.641-14.107-2.573-30.368-2.573-46.846s0.932-32.738 2.748-48.731c0.714-6.58 7.868-13.178 16.565-13.189h100.588c30.821-0.378 57.074-19.535 67.877-46.541-6.807-4.242-15.284-8.051-24.027-11.314l24.417 10.175c3.813-8.67 6.033-18.777 6.033-29.402 0-20.165-7.994-38.464-20.986-51.899z" />
<glyph unicode="&#xe908;" glyph-name="conta-corrente" d="M507.52 930.453c-273.718-0.44-495.441-222.433-495.441-496.213 0-274.051 222.162-496.213 496.213-496.213s496.213 222.162 496.213 496.213c0 217.059-139.368 401.567-333.501 468.921-6.077 1.968-9.066 2.496-12.178 2.496-14.848 0-26.884-12.037-26.884-26.884 0-11.735 7.519-21.714 18.002-25.383 176.41-61.504 300.588-226.252 300.588-420.004 0-245.067-198.666-443.733-443.733-443.733s-443.733 198.666-443.733 443.733c0 245.067 198.666 443.733 443.733 443.733 0.253 0 0.506 0 0.76-0.001 14.688 0 26.628 11.939 26.628 26.667s-11.939 26.667-26.667 26.667zM509.76 668.053v0c0.032 0 0.069 0 0.107 0 13.49 0 24.427-10.936 24.427-24.427 0 0 0 0 0 0v-51.627c19.25-2.372 36.758-7.595 52.872-15.269 6.022-3.395 10.729-10.751 10.729-19.206 0-12.312-9.981-22.293-22.293-22.293-3.009 0-5.878 0.596-8.496 1.676-16.167 8.105-35.389 12.903-55.727 12.959-33.512 0-53.352-13.013-53.352-37.227 0-26.667 32-39.040 66.88-53.333 44.587-17.92 92.907-38.4 92.907-89.813 0-47.040-29.76-79.253-83.627-87.36v-52.48c0-13.52-10.96-24.48-24.48-24.48s-24.48 10.96-24.48 24.48v50.667c-23.652 2.121-45.369 8.468-65.051 18.288-6.385 3.244-11.401 10.8-11.401 19.529 0 3.931 1.017 7.624 2.803 10.83l-0.058-0.113c3.805 6.97 11.082 11.62 19.445 11.62 3.689 0 7.167-0.905 10.223-2.504 17.562-9.457 38.545-15.121 60.836-15.302 42.189 0 64.056 14.826 64.056 39.68 0 30.4-39.68 40.96-79.36 57.6s-79.36 39.040-79.36 89.813c0 42.667 29.76 73.067 77.44 81.173v52.267c0 13.49 10.936 24.427 24.427 24.427zM723.307 743.040c0.899-2.561 1.418-5.513 1.418-8.587 0-14.745-11.953-26.698-26.698-26.698-11.672 0-21.594 7.489-25.223 17.924l-42.723 124.774c-1.763 4.995-2.782 10.755-2.782 16.754 0 22.519 14.358 41.684 34.42 48.84l124.949 42.779c2.561 0.899 5.513 1.418 8.587 1.418 14.745 0 26.698-11.953 26.698-26.698 0-11.672-7.489-21.594-17.924-25.223l-122.534-42.19zM680.64 867.627c0.077-0.174 0.122-0.377 0.122-0.591 0-0.678-0.452-1.251-1.071-1.433l1.483-0.003z" />
<glyph unicode="&#xe909;" glyph-name="credito-imobiliario" d="M819.52 310.827v-272.213c0-0.001 0-0.002 0-0.003 0-22.67-18.227-41.082-40.825-41.383h-544.028c-0.381-0.013-0.83-0.020-1.28-0.020-22.857 0-41.387 18.529-41.387 41.387 0 0.007 0 0.014 0 0.021v272.212c0 14.728-11.939 26.667-26.667 26.667s-26.667-11.939-26.667-26.667v-272.213c0-52.312 42.408-94.72 94.72-94.72h545.28c52.312 0 94.72 42.408 94.72 94.72v272.213c0 14.728-11.939 26.667-26.667 26.667s-26.667-11.939-26.667-26.667zM854.933 405.333h-697.92c-0.003 0-0.007 0-0.010 0-7.423 0-13.44 6.017-13.44 13.44 0 1.806 0.356 3.529 1.003 5.103l96.927 242.364c6.264 15.373 21.088 26.013 38.398 26.027h120.535c14.728 0 26.667 11.939 26.667 26.667s-11.939 26.667-26.667 26.667h-120.64c-39.549-0.046-73.416-24.324-87.557-58.782l-97.296-242.978c-3.089-7.417-4.884-16.032-4.884-25.067 0-36.878 29.895-66.773 66.773-66.773 0.067 0 0.134 0 0.201 0h697.91c0.152-0.001 0.331-0.002 0.511-0.002 36.878 0 66.773 29.895 66.773 66.773 0 9.035-1.795 17.652-5.047 25.512l-0.798 1.584-22.507 44.8c-4.446 8.9-13.488 14.905-23.933 14.905-14.728 0-26.667-11.939-26.667-26.667 0-4.428 1.079-8.604 2.989-12.279l21.263-43.052c0.561-1.424 0.886-3.074 0.886-4.8 0-7.423-6.017-13.44-13.44-13.44-0.012 0-0.023 0-0.035 0zM940.907 719.040c0-127.482-103.345-230.827-230.827-230.827s-230.827 103.345-230.827 230.827c0 127.482 103.345 230.827 230.827 230.827s230.827-103.345 230.827-230.827zM887.573 719.040c0 98.027-79.466 177.493-177.493 177.493s-177.493-79.466-177.493-177.493c0-98.027 79.466-177.493 177.493-177.493s177.493 79.466 177.493 177.493zM707.733 842.667v0c0 0 0 0 0 0 6.855 0 12.419-5.527 12.48-12.368v-26.246c9.785-1.212 18.683-3.88 26.867-7.798 3.357-1.624 5.989-5.513 5.989-10.016 0-6.246-5.063-11.309-11.309-11.309-1.743 0-3.394 0.394-4.868 1.099-8.215 4.108-17.971 6.546-28.292 6.584-16.973 0-27.106-6.613-27.106-18.88s16-19.84 34.027-27.093c22.613-9.173 47.147-19.52 47.147-45.653 0-23.893-15.147-40.32-42.667-44.373v-26.667c-0.609-6.379-5.94-11.327-12.427-11.327s-11.818 4.949-12.423 11.277l-0.004 25.864c-12.061 1.073-23.138 4.304-33.176 9.308-3.227 1.647-5.763 5.475-5.763 9.896 0 1.994 0.516 3.867 1.422 5.494l-0.029-0.058c1.929 3.541 5.623 5.904 9.869 5.904 1.848 0 3.591-0.447 5.127-1.24 8.903-4.792 19.541-7.662 30.841-7.757 21.363 0 32.776 7.573 32.776 20.16 0 15.467-20.16 20.8-40.32 29.227s-40.32 19.84-40.32 45.653c0 21.333 15.147 37.12 39.36 41.173v26.773c0 0.002 0 0.005 0 0.007 0 6.834 5.54 12.373 12.373 12.373 0.15 0 0.299-0.003 0.448-0.008zM479.253 202.667c0 7.482-6.065 13.547-13.547 13.547h-123.627c-7.482 0-13.547-6.065-13.547-13.547v-205.44h150.72zM505.92-55.893h-204.053c-14.728 0-26.667 11.939-26.667 26.667v231.893c0 36.937 29.943 66.88 66.88 66.88h123.627c36.937 0 66.88-29.943 66.88-66.88v-232.107c0-14.728-11.939-26.667-26.667-26.667z" />
<glyph unicode="&#xe90a;" glyph-name="email" d="M58.667 693.333v-480c0-29.455 23.878-53.333 53.333-53.333h800c29.455 0 53.333 23.878 53.333 53.333v480c0 29.455-23.878 53.333-53.333 53.333h-800c-29.455 0-53.333-23.878-53.333-53.333zM5.333 693.333c0 58.91 47.756 106.667 106.667 106.667h800c58.91 0 106.667-47.756 106.667-106.667v-480c0-58.91-47.756-106.667-106.667-106.667h-800c-58.91 0-106.667 47.756-106.667 106.667zM467.413 466.24l-391.893 294.827c-4.401 3.33-9.967 5.333-16 5.333-14.728 0-26.667-11.939-26.667-26.667 0-8.694 4.161-16.417 10.6-21.285l394.627-296.795c20.955-13.392 46.509-21.345 73.92-21.345s52.965 7.954 74.479 21.679l1.254 0.946 392.853 295.467c6.506 4.917 10.667 12.639 10.667 21.333 0 14.728-11.939 26.667-26.667 26.667-6.033 0-11.599-2.004-16.067-5.382l-391.826-294.778c-12.702-7.915-28.123-12.607-44.64-12.607s-31.938 4.693-45.002 12.817z" />
<glyph unicode="&#xe90b;" glyph-name="emprestimos" d="M389.12-21.333c0.751-0.075 1.624-0.118 2.507-0.118s1.755 0.043 2.616 0.127c0.201-0.011 0.567-0.012 0.934-0.012 28.703 0 55.632 7.599 78.884 20.894 7.753 4.069 36.020 20.923 40.393 23.376l100.053 50.24c8.9 4.446 14.905 13.488 14.905 23.933 0 14.728-11.939 26.667-26.667 26.667-4.428 0-8.604-1.079-12.279-2.989l-100.652-50.597c-3.627-2.027-33.707-19.947-41.387-24-14.876-8.741-32.713-14.013-51.76-14.292l-311.334 58.879c-0.751 0.075-1.624 0.118-2.507 0.118s-1.755-0.043-2.616-0.127c-4.614 0.951-8.618 3.527-11.378 7.11-5.113 5.672-8.227 13.16-8.246 21.374v104.751c0 0.032 0 0.069 0 0.107 0 15.493 12.56 28.053 28.053 28.053 0 0 0 0 0 0 0.010 0 0.022 0 0.034 0 65.419 0 125.925 21.033 175.126 56.705 45.533 33.108 74.653 44.522 120.2 44.522h147.627c34.254-0.042 62.006-27.82 62.006-62.080 0-1.464-0.051-2.916-0.15-4.354-3.19-32.444-30.491-57.738-63.701-57.738-0.439 0-0.877 0.004-1.314 0.013l-138.601-0.001c-14.728 0-26.667-11.939-26.667-26.667s11.939-26.667 26.667-26.667h138.667c0.37-0.004 0.808-0.007 1.246-0.007 61.425 0 111.825 47.2 116.911 107.309 0.192 2.728 0.285 5.409 0.285 8.111 0 63.718-51.636 115.377-115.346 115.413h-147.63c-58.133 0-97.493-15.36-152.64-54.933-39.701-28.806-89.399-46.080-143.131-46.080-0.005 0-0.011 0-0.016 0-0.031 0-0.069 0-0.106 0-44.949 0-81.387-36.438-81.387-81.387 0-0.113 0-0.225 0.001-0.338v-104.943c0-41.813 32.747-79.467 70.187-81.387zM638.72 280.747l233.067 112.32c9.032 5.175 19.855 8.227 31.39 8.227 22.56 0 42.394-11.673 53.791-29.309 5.737-9.386 9.045-20.44 9.045-32.268 0-23.941-13.552-44.716-33.403-55.074l-235.863-113.976-129.493-61.12c-9.094-4.379-15.259-13.523-15.259-24.107 0-14.731 11.941-26.672 26.672-26.672 4.147 0 8.072 0.946 11.573 2.635l129.44 61.477 235.84 113.707c37.954 19.457 63.477 58.314 63.477 103.133 0 21.859-6.071 42.301-16.62 59.73-20.754 33.008-57.521 54.965-99.417 54.965-20.111 0-39.040-5.060-55.584-13.975l-231.803-111.586c-9.533-4.206-16.067-13.575-16.067-24.47 0-14.728 11.939-26.667 26.667-26.667 4.593 0 8.915 1.161 12.688 3.206zM506.133 925.013v0c0.032 0 0.069 0 0.107 0 12.194 0 22.080-9.886 22.080-22.080 0-0.038 0-0.075 0-0.113v-46.608c17.399-2.185 33.208-6.955 47.748-13.946 5.528-3.050 9.841-9.74 9.841-17.437 0-11.134-9.026-20.16-20.16-20.16-2.766 0-5.402 0.557-7.802 1.565-14.622 7.348-32.006 11.711-50.401 11.79-30.32 0-48.24-11.733-48.24-33.6 0-24.107 28.587-35.307 60.48-48.213 40.32-16.213 84.053-34.773 84.053-81.28 0-42.667-26.88-71.68-75.627-79.040v-47.467c0.034-0.46 0.053-0.996 0.053-1.537 0-12.253-9.933-22.187-22.187-22.187s-22.187 9.933-22.187 22.187c0 0.541 0.019 1.077 0.057 1.609l-0.004 45.795c-21.477 1.901-41.207 7.641-59.090 16.537-5.871 2.895-10.494 9.783-10.494 17.751 0 3.713 1.004 7.192 2.755 10.18l-0.051-0.095c3.435 6.305 10.013 10.513 17.575 10.513 3.319 0 6.449-0.811 9.202-2.245 15.873-8.543 34.84-13.657 54.987-13.814 38.129 0 58.289 13.44 58.289 35.84 0 27.413-35.84 37.013-71.68 52.16s-71.467 34.88-71.467 81.173c0 38.080 26.88 66.133 70.080 73.387v47.147c0 0.032 0 0.069 0 0.107 0 12.194 9.886 22.080 22.080 22.080 0.038 0 0.075 0 0.113 0zM506.133 921.813c-0.032 0-0.069 0-0.107 0-10.427 0-18.88-8.453-18.88-18.88 0-0.038 0-0.075 0-0.113v-49.488h-2.667c-41.707-7.040-67.413-33.813-67.413-70.293s21.333-57.28 69.973-78.4l24.96-11.307c34.667-14.187 48.64-24.96 48.64-44.907 0-24.96-22.4-39.040-61.44-39.040-20.749 0.122-40.238 5.399-57.287 14.613-1.568 0.836-4.191 1.514-6.972 1.514-6.367 0-11.904-3.553-14.737-8.785-1.478-2.534-2.325-5.475-2.325-8.613 0-6.641 3.793-12.396 9.331-15.217 16.713-8.358 36.084-13.986 56.552-15.788l3.491-0.043v-48.747c-0.034-0.426-0.053-0.922-0.053-1.422 0-10.486 8.501-18.987 18.987-18.987s18.987 8.501 18.987 18.987c0 0.5-0.019 0.996-0.057 1.487l0.004 50.388h2.773c46.827 7.040 72.96 34.56 72.96 75.84 0 36.8-22.187 54.187-82.027 78.293l-10.667 4.373c-36.8 15.147-51.627 26.453-51.627 46.72 0 23.68 19.2 36.8 51.413 36.8 18.925-0.040 36.793-4.527 52.627-12.469 1.379-0.665 3.794-1.234 6.341-1.234 6.034 0 11.322 3.191 14.27 7.977 1.579 2.575 2.49 5.607 2.49 8.851 0 6.73-3.92 12.544-9.6 15.284-13.475 6.806-29.010 11.75-45.396 14.034l-3.559 0.090v49.493c0 0.032 0 0.069 0 0.107 0 10.427-8.453 18.88-18.88 18.88-0.038 0-0.075 0-0.113 0zM480.853 902.827c-0.034 0.492-0.053 1.066-0.053 1.645 0 14.021 11.366 25.387 25.387 25.387s25.387-11.366 25.387-25.387c0-0.579-0.019-1.153-0.057-1.722l0.004-43.763c16.808-2.34 32.015-7.016 46.056-13.737 7.166-3.429 12.671-11.537 12.671-20.93 0-12.994-10.533-23.527-23.527-23.527-3.6 0-7.012 0.809-10.063 2.255-14.201 7.167-31.115 11.417-49.017 11.459-29.134 0-45.027-10.667-45.027-30.4 0-16.533 13.227-26.667 47.68-40.853l10.667-4.373c62.187-25.067 86.080-43.627 86.080-84.267 0-43.84-27.52-73.6-75.627-81.707v-44.693c0.034-0.492 0.053-1.066 0.053-1.645 0-14.021-11.366-25.387-25.387-25.387s-25.387 11.366-25.387 25.387c0 0.579 0.019 1.153 0.057 1.722l-0.004 42.59c-20.902 2.175-40.010 7.887-57.396 16.543-6.911 3.567-12.216 11.612-12.216 20.897 0 13.173 10.679 23.851 23.851 23.851 3.888 0 7.559-0.93 10.802-2.581 15.31-8.31 33.651-13.304 53.142-13.484 36.002 0 55.096 12.053 55.096 32.64 0 16.213-12.373 25.813-44.693 39.040l-25.28 10.667c-50.667 21.333-73.493 43.307-73.493 84.16 0 38.933 26.88 67.84 70.080 76.053z" />
<glyph unicode="&#xe90c;" glyph-name="excel" d="M821.973 620.373c0 0.019 0 0.041 0 0.064 0 11.177-4.524 21.298-11.841 28.63l-229.759 230.186c-7.369 7.375-17.551 11.94-28.799 11.947h-309.335c-22.445 0-40.64-18.195-40.64-40.64v-807.893c0-22.445 18.195-40.64 40.64-40.64h538.667c0.127-0.001 0.277-0.002 0.427-0.002 22.445 0 40.64 18.195 40.64 40.64 0 0.001 0 0.002 0 0.002zM875.307 620.373v-577.707c0-51.9-42.073-93.973-93.973-93.973h-538.667c-51.9 0-93.973 42.073-93.973 93.973v807.787c0 51.9 42.073 93.973 93.973 93.973h309.333c0.022 0 0.048 0 0.074 0 25.749 0 49.082-10.344 66.070-27.104l229.75-230.603c16.939-16.979 27.413-40.413 27.413-66.294 0-0.018 0-0.037 0-0.055zM828.053 674.88h-182.080c-21.974 0-39.787 17.813-39.787 39.787v184c0 14.728-11.939 26.667-26.667 26.667s-26.667-11.939-26.667-26.667v-184c0-51.429 41.691-93.12 93.12-93.12h182.080c14.728 0 26.667 11.939 26.667 26.667s-11.939 26.667-26.667 26.667zM503.253 337.707h-78.827v-64h91.627v-19.627h-115.627v181.547h114.347v-19.627h-90.347v-58.667h78.827zM587.627 339.413l29.973 49.387h26.987l-44.267-66.88 45.653-68.373h-26.667l-31.253 50.667-31.253-50.667h-26.88l46.080 68.373-44.267 66.88h26.773z" />
<glyph unicode="&#xe90d;" glyph-name="folha-pagamento" d="M658.773-11.733v0zM586.667 211.413c-2.825 7.372-9.816 12.523-18.019 12.587h-115.208c-8.404-0.005-15.551-5.38-18.198-12.878l-68.842-213.468h289.173zM637.333 228.16l71.893-223.253c1.481-4.297 2.336-9.249 2.336-14.4 0-25.151-20.386-45.541-45.536-45.547h-310.294c-0.008 0-0.017 0-0.026 0-25.155 0-45.547 20.392-45.547 45.547 0 5.072 0.829 9.951 2.359 14.508l72.013 223.679c10.248 28.571 37.099 48.641 68.637 48.641 0.095 0 0.19 0 0.285-0.001h115.185c0.025 0 0.055 0 0.085 0 31.736 0 58.726-20.322 68.666-48.664zM574.933 423.36c0 35.346-28.654 64-64 64s-64-28.654-64-64c0-35.346 28.654-64 64-64s64 28.654 64 64zM628.267 423.36c0-64.801-52.532-117.333-117.333-117.333s-117.333 52.532-117.333 117.333c0 64.801 52.532 117.333 117.333 117.333s117.333-52.532 117.333-117.333zM869.333-16.853v0zM812.48 161.28c-1.333 3.927-4.98 6.705-9.278 6.72h-91.308c-4.3-0.015-7.947-2.793-9.26-6.651l-24.234-72.602c-3.908-10.183-13.605-17.28-24.96-17.28-14.728 0-26.667 11.939-26.667 26.667 0 2.661 0.39 5.231 1.115 7.655l24.165 72.451c8.768 25.035 32.192 42.667 59.733 42.667 0.075 0 0.15 0 0.225 0h91.188c27.861-0.020 51.505-18.048 59.923-43.074l56.984-177.833c1.342-3.916 2.117-8.427 2.117-13.12 0-23.028-18.664-41.698-41.69-41.707h-252.801c-14.728 0-26.667 11.939-26.667 26.667s11.939 26.667 26.667 26.667h236.8zM802.667 354.667c-0.061 24.932-20.286 45.12-45.227 45.12-24.978 0-45.227-20.249-45.227-45.227 0-24.94 20.188-45.166 45.114-45.227 0.038 0 0.075 0 0.113 0 24.978 0 45.227 20.249 45.227 45.227 0 0.038 0 0.075 0 0.113zM856 354.667c-0.061-54.387-44.164-98.453-98.56-98.453-54.433 0-98.56 44.127-98.56 98.56 0 54.396 44.066 98.499 98.447 98.56 0.038 0 0.075 0 0.113 0 54.433 0 98.56-44.127 98.56-98.56 0-0.038 0-0.075 0-0.113zM307.947 354.667c-0.061 24.932-20.286 45.12-45.227 45.12-24.978 0-45.227-20.249-45.227-45.227s20.249-45.227 45.227-45.227c0 0 0 0 0 0 24.978 0 45.227 20.249 45.227 45.227 0 0.037 0 0.075 0 0.112zM361.28 354.667c0-54.433-44.127-98.56-98.56-98.56s-98.56 44.127-98.56 98.56c0 54.433 44.127 98.56 98.56 98.56s98.56-44.127 98.56-98.56zM150.827-17.173v0zM366.080-1.813c14.728 0 26.667-11.939 26.667-26.667s-11.939-26.667-26.667-26.667h-226.347c-0.039 0-0.086 0-0.133 0-22.975 0-41.6 18.625-41.6 41.6 0 4.614 0.751 9.053 2.138 13.2l57.088 178.48c8.768 25.035 32.192 42.667 59.733 42.667 0.075 0 0.15 0 0.225 0h91.295c0.010 0 0.021 0 0.033 0 27.74 0 51.302-17.886 59.782-42.755l25.092-75.111c0.677-2.236 1.067-4.806 1.067-7.467 0-14.728-11.939-26.667-26.667-26.667-11.355 0-21.052 7.097-24.898 17.098l-25.022 74.849c-1.333 3.927-4.98 6.705-9.278 6.72h-91.308c-0.014 0-0.031 0-0.047 0-4.175 0-7.734-2.635-9.104-6.333l-52.395-162.947zM509.973 956.16v0c11.075 0 20.053-8.978 20.053-20.053v-42.667c15.837-1.915 30.251-6.201 43.508-12.521 4.846-2.801 8.632-8.776 8.632-15.634 0-10.074-8.166-18.24-18.24-18.24-2.412 0-4.715 0.468-6.823 1.319-13.235 6.635-28.971 10.567-45.619 10.623-27.432 0-43.645-10.667-43.645-30.4 0-21.333 25.92-32 54.827-43.627 36.587-14.72 76.16-31.467 76.16-73.6 0-38.507-24.32-64.96-68.48-71.573v-42.667c0-11.075-8.978-20.053-20.053-20.053s-20.053 8.978-20.053 20.053v41.6c-19.53 1.648-37.496 6.825-53.774 14.895-5.205 2.657-9.299 8.834-9.299 15.967 0 3.236 0.843 6.275 2.32 8.909l-0.047-0.092c3.097 5.724 9.056 9.546 15.907 9.546 2.993 0 5.815-0.729 8.3-2.020 14.367-7.742 31.534-12.381 49.771-12.539 34.609 0 52.849 12.16 52.849 32 0 24.853-32 33.493-64.96 47.147s-64.96 32-64.96 73.6c0 34.56 24.32 59.84 63.467 66.453v42.667c-0.012 0.255-0.018 0.553-0.018 0.854 0 11.075 8.978 20.053 20.053 20.053 0.044 0 0.088 0 0.132 0z" />
<glyph unicode="&#xe90e;" glyph-name="home" d="M814.72 467.307v-415.253c-0.121-31.174-25.36-56.413-56.522-56.533h-499.105c-31.174 0.121-56.413 25.36-56.533 56.522v417.292c0 14.728-11.939 26.667-26.667 26.667s-26.667-11.939-26.667-26.667v-417.28c0.121-60.629 49.238-109.745 109.855-109.867h499.105c60.629 0.121 109.745 49.238 109.867 109.855v415.265c0 14.728-11.939 26.667-26.667 26.667s-26.667-11.939-26.667-26.667zM56.747 477.76l411.947 411.947c10.251 10.163 24.365 16.442 39.947 16.442s29.696-6.28 39.951-16.446l411.943-411.943c4.832-4.832 11.507-7.82 18.88-7.82 14.746 0 26.7 11.954 26.7 26.7 0 7.373-2.989 14.048-7.82 18.88l-411.627 411.84c-19.907 19.842-47.374 32.11-77.707 32.11s-57.799-12.268-77.71-32.113l-412.264-411.944c-4.832-4.832-7.82-11.507-7.82-18.88 0-14.746 11.954-26.7 26.7-26.7 7.373 0 14.048 2.989 18.88 7.82z" />
<glyph unicode="&#xe90f;" glyph-name="imprimir" d="M758.827 370.24v-262.507c-0.12-22.809-18.578-41.266-41.375-41.387h-408.118c-22.809 0.12-41.266 18.578-41.387 41.375v262.518c0 14.728-11.939 26.667-26.667 26.667s-26.667-11.939-26.667-26.667v-262.507c0.121-52.264 42.456-94.599 94.708-94.72h408.225c52.264 0.121 94.599 42.456 94.72 94.708v262.518c0 14.728-11.939 26.667-26.667 26.667s-26.667-11.939-26.667-26.667zM267.84 720.213v68.053c0.121 22.846 18.639 41.326 41.488 41.387h408.219c22.809-0.12 41.266-18.578 41.387-41.375v-68.065c0-14.728 11.939-26.667 26.667-26.667s26.667 11.939 26.667 26.667v68.053c-0.121 52.264-42.456 94.599-94.708 94.72h-408.225c-52.264-0.121-94.599-42.456-94.72-94.708v-68.065c0-14.728 11.939-26.667 26.667-26.667s26.667 11.939 26.667 26.667zM173.12 353.173h680.213c14.728 0 26.667 11.939 26.667 26.667s-11.939 26.667-26.667 26.667h-680.213c-14.728 0-26.667-11.939-26.667-26.667s11.939-26.667 26.667-26.667zM241.173 263.147h-136.32c-22.809 0.12-41.266 18.578-41.387 41.375v347.638c0.24 22.717 18.652 41.054 41.375 41.173h816.758c22.809-0.12 41.266-18.578 41.387-41.375v-347.425c-0.12-22.809-18.578-41.266-41.375-41.387h-136.118c-14.728 0-26.667-11.939-26.667-26.667s11.939-26.667 26.667-26.667h136.107c52.264 0.121 94.599 42.456 94.72 94.708v347.638c-0.242 52.172-42.531 94.386-94.709 94.507h-816.758c-52.189-0.121-94.478-42.335-94.72-94.484v-347.65c0.121-52.264 42.456-94.599 94.708-94.72h136.332c14.728 0 26.667 11.939 26.667 26.667s-11.939 26.667-26.667 26.667z" />
<glyph unicode="&#xe910;" glyph-name="investimentos" d="M490.667 816h501.333c14.728 0 26.667 11.939 26.667 26.667s-11.939 26.667-26.667 26.667h-501.333c-14.728 0-26.667-11.939-26.667-26.667s11.939-26.667 26.667-26.667zM490.667 645.333h499.733c14.728 0 26.667 11.939 26.667 26.667s-11.939 26.667-26.667 26.667h-499.733c-14.728 0-26.667-11.939-26.667-26.667s11.939-26.667 26.667-26.667zM705.173 464h288c14.728 0 26.667 11.939 26.667 26.667s-11.939 26.667-26.667 26.667h-288c-14.728 0-26.667-11.939-26.667-26.667s11.939-26.667 26.667-26.667zM705.173 298.667h288c14.728 0 26.667 11.939 26.667 26.667s-11.939 26.667-26.667 26.667h-288c-14.728 0-26.667-11.939-26.667-26.667s11.939-26.667 26.667-26.667zM646.72 101.333h345.813c14.728 0 26.667 11.939 26.667 26.667s-11.939 26.667-26.667 26.667h-345.813c-14.728 0-26.667-11.939-26.667-26.667s11.939-26.667 26.667-26.667zM303.253 471.040v0c7.894 0 14.293-6.399 14.293-14.293v-30.080c11.247-1.376 21.479-4.42 30.897-8.898 3.253-2.048 5.796-6.201 5.796-10.949 0-7.187-5.826-13.013-13.013-13.013-1.449 0-2.842 0.237-4.144 0.674-9.437 4.732-20.664 7.526-32.541 7.547-19.527 0-31.154-7.573-31.154-21.333s18.453-22.827 39.040-31.147c26.027-10.667 54.293-22.4 54.293-52.48 0-27.52-17.387-46.293-48.853-50.987v-30.613c0-7.894-6.399-14.293-14.293-14.293s-14.293 6.399-14.293 14.293v29.227c-13.893 1.307-26.628 5.103-38.151 10.944-3.983 1.801-7.117 6.34-7.117 11.611 0 2.079 0.488 4.044 1.354 5.787l-0.034-0.076c2.234 4.040 6.469 6.73 11.333 6.73 2.131 0 4.141-0.516 5.913-1.431 10.252-5.528 22.507-8.833 35.526-8.926 24.669 0 37.682 8.64 37.682 23.147 0 17.707-23.147 23.893-46.293 33.707s-46.293 22.827-46.293 52.48c0 24.64 17.387 42.667 45.227 47.36v30.72c0 7.894 6.399 14.293 14.293 14.293zM603.093 334.187c0-166.304-134.816-301.12-301.12-301.12s-301.12 134.816-301.12 301.12c0 166.304 134.816 301.12 301.12 301.12s301.12-134.816 301.12-301.12zM549.76 334.187c0 0.032 0 0.069 0 0.107 0 136.849-110.938 247.787-247.787 247.787s-247.787-110.938-247.787-247.787c0-136.849 110.938-247.787 247.787-247.787 136.811 0 247.726 110.877 247.787 247.674z" />
<glyph unicode="&#xe911;" glyph-name="minhas-vagas" d="M280.747 27.627l111.467 193.173c2.989 6.078 4.736 13.231 4.736 20.791 0 26.51-21.49 48-48 48-16.384 0-30.851-8.209-39.512-20.738l-111.785-193.227c-3.632-6.595-5.768-14.455-5.768-22.814 0-26.51 21.49-48 48-48 17.188 0 32.265 9.034 40.744 22.612zM437.973 194.347l-111.573-193.067c-17.739-30.336-50.154-50.39-87.253-50.39-55.635 0-100.737 45.101-100.737 100.737 0 18.536 5.006 35.903 13.741 50.823l111.316 192.697c17.749 30.321 50.161 50.364 87.253 50.364 55.65 0 100.764-45.113 100.764-100.764 0-18.557-5.017-35.943-13.768-50.875zM649.067 698.453c0 31.399-25.454 56.853-56.853 56.853s-56.853-25.454-56.853-56.853c0-31.399 25.454-56.853 56.853-56.853s56.853 25.454 56.853 56.853zM701.867 698.453c0-60.56-49.093-109.653-109.653-109.653s-109.653 49.093-109.653 109.653c0 60.56 49.093 109.653 109.653 109.653 60.514-0.061 109.547-49.131 109.547-109.653zM529.707 502.507c3.108 5.652 8.999 9.433 15.778 9.493h99.635c14.58 0 26.4 11.82 26.4 26.4s-11.82 26.4-26.4 26.4h-99.627c-0.021 0-0.045 0-0.070 0-26.225 0-49.126-14.232-61.401-35.393l-130.102-227.753c-2.2-3.766-3.499-8.291-3.499-13.12 0-14.551 11.796-26.347 26.347-26.347 0.030 0 0.060 0 0.091 0h357.649c14.58 0 26.4 11.82 26.4 26.4s-11.82 26.4-26.4 26.4h-312.107zM452.267 314.88c-14.58 0-26.4-11.82-26.4-26.4s11.82-26.4 26.4-26.4h357.653c0.025 0 0.056 0 0.086 0 14.551 0 26.347 11.796 26.347 26.347 0 4.829-1.299 9.354-3.567 13.246l-129.853 227.075c-12.457 21.502-35.358 35.733-61.583 35.733-0.025 0-0.049 0-0.074 0h-99.623c-14.58 0-26.4-11.82-26.4-26.4s11.82-26.4 26.4-26.4h99.627c0.006 0 0.014 0 0.022 0 6.72 0 12.586-3.655 15.718-9.086l107.353-187.714zM794.56 546.133c19.757 33.568 31.427 73.949 31.427 117.055 0 129.073-104.634 233.707-233.707 233.707s-233.707-104.634-233.707-233.707c0-86.043 46.498-161.225 115.737-201.791 34.626-20.287 74.94-31.916 117.97-31.916 85.967 0 161.092 46.416 201.683 115.553zM840.32 519.787c-50.442-86.207-142.579-143.192-248.025-143.192-158.174 0-286.4 128.226-286.4 286.4s128.226 286.4 286.4 286.4c52.713 0 102.101-14.241 144.524-39.086 84.855-49.737 141.837-141.891 141.837-247.353 0-52.71-14.234-102.095-39.068-144.522zM439.36 450.987l-74.667-128.747c-2.214-3.78-3.521-8.324-3.521-13.173 0-14.581 11.82-26.401 26.401-26.401 9.732 0 18.234 5.265 22.812 13.103l74.734 128.872c2.214 3.78 3.521 8.324 3.521 13.173 0 14.581-11.82 26.401-26.401 26.401-9.732 0-18.234-5.265-22.812-13.103z" />
<glyph unicode="&#xe912;" glyph-name="outros-produtos" d="M605.76 883.2c-37.494 10.775-80.559 16.972-125.072 16.972-259.206 0-469.333-210.128-469.333-469.333s210.128-469.333 469.333-469.333c259.206 0 469.333 210.128 469.333 469.333 0 32.955-3.397 65.116-9.859 96.154-2.038 9.216-12.76 18.293-25.603 18.293-14.731 0-26.672-11.941-26.672-26.672 0-1.888 0.196-3.73 0.569-5.507 5.191-24.552 8.181-52.963 8.181-82.071 0-229.75-186.25-416-416-416s-416 186.25-416 416c0 229.75 186.25 416 416 416 39.443 0 77.604-5.489 113.761-15.746-1.409 0.402 0.341 0.226 2.132 0.226 14.728 0 26.667 11.939 26.667 26.667 0 11.414-7.171 21.153-17.254 24.958zM482.027 651.307v0c0.032 0 0.069 0 0.107 0 12.725 0 23.040-10.315 23.040-23.040 0 0 0 0 0 0v-48.64c18.199-2.319 34.726-7.349 49.913-14.71 4.456-3.503 7.934-9.8 7.934-16.909 0-11.782-9.551-21.333-21.333-21.333-1.907 0-3.756 0.25-5.516 0.72-15.235 7.644-33.354 12.166-52.522 12.233-32.022 0-50.262-12.267-50.262-35.093 0-25.173 29.76-36.8 63.147-50.24 42.027-16.96 87.68-36.267 87.68-84.8 0-44.373-28.053-74.667-78.933-82.453v-49.493c0-12.754-10.339-23.093-23.093-23.093s-23.093 10.339-23.093 23.093v48c-22.416 1.95-43.019 7.922-61.692 17.195-5.977 3.155-10.663 10.314-10.663 18.566 0 3.659 0.921 7.102 2.544 10.112l-0.056-0.113c3.743 6.482 10.639 10.775 18.537 10.775 3.384 0 6.585-0.788 9.428-2.191 16.567-8.938 36.378-14.288 57.425-14.451 39.73 0 60.85 14.080 60.85 37.44 0 28.587-37.44 38.613-74.667 54.4s-74.667 36.8-74.667 84.693c0 39.787 28.053 69.013 73.067 76.587v49.6c0 12.725 10.315 23.040 23.040 23.040zM1013.973 752.747c0-101.149-81.998-183.147-183.147-183.147s-183.147 81.998-183.147 183.147c0 101.149 81.998 183.147 183.147 183.147s183.147-81.998 183.147-183.147zM971.307 752.747c0 77.585-62.895 140.48-140.48 140.48s-140.48-62.895-140.48-140.48c0-77.585 62.895-140.48 140.48-140.48s140.48 62.895 140.48 140.48zM809.6 824.747v-144c0-11.782 9.551-21.333 21.333-21.333s21.333 9.551 21.333 21.333v144c0 11.782-9.551 21.333-21.333 21.333s-21.333-9.551-21.333-21.333zM758.933 731.413h144c11.782 0 21.333 9.551 21.333 21.333s-9.551 21.333-21.333 21.333h-144c-11.782 0-21.333-9.551-21.333-21.333s9.551-21.333 21.333-21.333z" />
<glyph unicode="&#xe913;" glyph-name="outros-servicos" d="M334.613 448c0 32.636-26.457 59.093-59.093 59.093s-59.093-26.457-59.093-59.093c0-32.636 26.457-59.093 59.093-59.093s59.093 26.457 59.093 59.093zM570.773 448c0.001 0.095 0.001 0.207 0.001 0.319 0 32.636-26.457 59.093-59.093 59.093s-59.093-26.457-59.093-59.093c0-32.636 26.457-59.093 59.093-59.093 0.112 0 0.224 0 0.336 0.001 32.369 0.18 58.575 26.386 58.756 58.756zM807.040 448c0 32.636-26.457 59.093-59.093 59.093s-59.093-26.457-59.093-59.093c0-32.636 26.457-59.093 59.093-59.093s59.093 26.457 59.093 59.093zM964.267 448c0 0.063 0 0.138 0 0.213 0 249.898-202.582 452.48-452.48 452.48s-452.48-202.582-452.48-452.48c0-249.898 202.582-452.48 452.48-452.48 0.075 0 0.15 0 0.225 0 249.719 0.121 452.134 202.536 452.255 452.255zM1017.6 448c-0.122-279.261-226.535-505.6-505.813-505.6-279.353 0-505.813 226.46-505.813 505.813s226.46 505.813 505.813 505.813c0.075 0 0.15 0 0.225 0 279.249-0.122 505.588-226.535 505.588-505.813 0-0.075 0-0.15 0-0.225z" />
<glyph unicode="&#xe914;" glyph-name="pagamento-fornecedores" d="M823.040 146.88c0-8.306-6.734-15.040-15.040-15.040h-130.987l-208.533 240.533-1.813 1.813c-9.691 8.691-22.565 14.005-36.681 14.005-11.149 0-21.524-3.315-30.193-9.013l-95.792-62.485c-5.404-2.936-11.834-4.662-18.667-4.662-21.927 0-39.702 17.775-39.702 39.702 0 15.094 8.423 28.221 20.825 34.936l1.383 0.744 137.92 88.96c15.317 8.133 33.489 12.908 52.777 12.908 0.196 0 0.391 0 0.587-0.001-0.005 0 0.024 0 0.053 0 9.122 0 17.999-1.050 26.516-3.034l232.387-100.646c2.421-1.060 5.242-1.685 8.205-1.707h81.715c8.306 0 15.040-6.734 15.040-15.040zM476.16-6.4c-10.099-7.689-22.89-12.319-36.762-12.319-16.579 0-31.614 6.613-42.61 17.344l-119.454 115.508c-10.213 10.969-24.734 17.809-40.853 17.813h-179.307c-8.040 0.294-14.453 6.856-14.507 14.928v222.299c0.112 8.032 6.503 14.535 14.48 14.826l154.267 0.001c-4.198-9.472-6.643-20.52-6.643-32.139 0-44.772 36.295-81.067 81.067-81.067 14.505 0 28.12 3.809 39.899 10.482l2.264 1.603 94.613 61.653c2.072 1.352 4.608 2.156 7.332 2.156 3.115 0 5.985-1.051 8.273-2.819l199.115-229.417zM808 425.6h-77.44l-230.933 99.84c-0.919 0.396-2.022 0.762-3.161 1.037-11.254 2.8-24.007 4.39-37.131 4.39-26.872 0-52.188-6.665-74.384-18.431l-0.951-0.436-133.653-86.4h-193.173c-31.139-0.061-56.366-25.287-56.427-56.421v-222.299c0.061-31.139 25.287-56.366 56.421-56.427h179.312c0.023 0 0.050 0 0.077 0 4.193 0 7.965-1.806 10.579-4.682l0.97-0.972 119.787-116.053c18.429-18.042 43.683-29.176 71.538-29.176 23.376 0 44.92 7.841 62.147 21.036l172.875 129.847h133.547c30.956 0.301 55.941 25.436 56 56.421v222.299c-0.061 31.139-25.287 56.366-56.421 56.427zM840.213 17.28c-14.728 0-26.667 11.939-26.667 26.667v428.053c0 14.728 11.939 26.667 26.667 26.667h156.907c14.728 0 26.667-11.939 26.667-26.667v-428.053c0-14.728-11.939-26.667-26.667-26.667zM970.453 70.613v374.72h-103.573v-374.72zM890.133 382.933c0-13.49 10.936-24.427 24.427-24.427s24.427 10.936 24.427 24.427c0 13.49-10.936 24.427-24.427 24.427s-24.427-10.936-24.427-24.427zM491.733 962.667v0c10.781 0 19.52-8.739 19.52-19.52v-41.173c15.366-1.88 29.345-6.052 42.204-12.191 4.282-2.841 7.624-8.429 7.624-14.797 0-9.838-7.975-17.813-17.813-17.813-2.068 0-4.053 0.352-5.9 1-12.87 6.564-28.191 10.489-44.416 10.628-26.713 0-42.713-10.666-42.713-29.653 0-21.333 25.173-31.147 53.333-42.667 35.627-14.293 74.667-30.613 74.667-71.68 0-37.547-23.68-63.253-66.773-69.653v-41.813c0-10.781-8.739-19.52-19.52-19.52s-19.52 8.739-19.52 19.52v40c-18.952 1.661-36.367 6.718-52.15 14.566-5.062 2.604-9.040 8.623-9.040 15.572 0 3.148 0.817 6.106 2.25 8.673l-0.046-0.090c2.961 5.794 8.887 9.691 15.723 9.691 2.987 0 5.801-0.744 8.265-2.057 14.001-7.547 30.728-12.069 48.498-12.22 33.647 0 51.46 11.84 51.46 32 0 24.213-32 32.64-63.253 45.973s-63.253 31.147-63.253 71.68c0 33.6 23.68 58.347 61.76 64.747v41.28c0 0.001 0 0.003 0 0.005 0 10.631 8.498 19.276 19.071 19.515z" />
<glyph unicode="&#xe915;" glyph-name="pagamentos" d="M60.16 722.24v-548.48c0.297-23.149 18.984-41.837 42.105-42.133h819.442c23.149 0.297 41.837 18.984 42.133 42.105v548.508c-0.297 23.149-18.984 41.837-42.105 42.133h-819.442c-23.149-0.297-41.837-18.984-42.133-42.105zM6.827 722.24c0.301 52.603 42.863 95.166 95.438 95.467h819.442c52.603-0.301 95.166-42.863 95.467-95.438v-548.509c-0.301-52.603-42.863-95.166-95.438-95.467h-819.442c-52.603 0.301-95.166 42.863-95.467 95.438zM828.373 645.44v-403.093c0-14.728 11.939-26.667 26.667-26.667s26.667 11.939 26.667 26.667v403.093c0 14.728-11.939 26.667-26.667 26.667s-26.667-11.939-26.667-26.667zM691.413 645.44v-294.613c0-14.728 11.939-26.667 26.667-26.667s26.667 11.939 26.667 26.667v294.613c0 14.728-11.939 26.667-26.667 26.667s-26.667-11.939-26.667-26.667zM416 645.44v-294.613c0-14.728 11.939-26.667 26.667-26.667s26.667 11.939 26.667 26.667v294.613c0 14.728-11.939 26.667-26.667 26.667s-26.667-11.939-26.667-26.667zM553.813 645.44v-294.613c0-14.728 11.939-26.667 26.667-26.667s26.667 11.939 26.667 26.667v294.613c0 14.728-11.939 26.667-26.667 26.667s-26.667-11.939-26.667-26.667zM278.613 645.44v-294.613c0-14.728 11.939-26.667 26.667-26.667s26.667 11.939 26.667 26.667v294.613c0 14.728-11.939 26.667-26.667 26.667s-26.667-11.939-26.667-26.667zM141.867 645.44v-403.093c0-14.728 11.939-26.667 26.667-26.667s26.667 11.939 26.667 26.667v403.093c0 14.728-11.939 26.667-26.667 26.667s-26.667-11.939-26.667-26.667z" />
<glyph unicode="&#xe916;" glyph-name="PDF" d="M821.973 622.080c-0.012 11.162-4.534 21.265-11.841 28.587l-229.759 230.186c-7.369 7.375-17.551 11.94-28.799 11.947h-309.335c-22.445 0-40.64-18.195-40.64-40.64v-808.32c0-22.445 18.195-40.64 40.64-40.64h538.667c22.445 0 40.64 18.195 40.64 40.64zM875.307 622.080v-578.24c0-51.9-42.073-93.973-93.973-93.973h-538.667c-51.9 0-93.973 42.073-93.973 93.973v808.32c0 51.9 42.073 93.973 93.973 93.973h309.333c26.002-0.010 49.536-10.567 66.558-27.625l229.335-230.082c16.939-16.979 27.413-40.413 27.413-66.294 0-0.018 0-0.037 0-0.055zM828.053 676.587h-182.080c-21.974 0-39.787 17.813-39.787 39.787v184c0 14.728-11.939 26.667-26.667 26.667s-26.667-11.939-26.667-26.667v-184c0-51.429 41.691-93.12 93.12-93.12h182.080c14.728 0 26.667 11.939 26.667 26.667s-11.939 26.667-26.667 26.667zM314.667 326.507v-71.253h-24v182.080h67.093c1.189 0.075 2.578 0.117 3.977 0.117 16.327 0 31.298-5.804 42.963-15.461 10.348-9.411 16.889-23.067 16.889-38.251 0-0.733-0.015-1.463-0.045-2.189 0.058-0.778 0.089-1.809 0.089-2.848 0-14.746-6.26-28.030-16.268-37.34-11.743-9.047-26.618-14.481-42.764-14.481-1.666 0-3.318 0.058-4.955 0.172zM314.667 346.133h42.667c0.93-0.072 2.013-0.113 3.107-0.113 10.026 0 19.245 3.458 26.528 9.247 6.511 5.998 10.632 14.67 10.632 24.305 0 0.657-0.019 1.31-0.057 1.957 0.017 0.261 0.024 0.672 0.024 1.085 0 9.778-4.099 18.599-10.672 24.838-7.112 6.319-16.512 10.17-26.811 10.17-0.48 0-0.957-0.008-1.433-0.025l-43.984 0.002zM452.16 255.253v182.080h51.413c0.413 0.007 0.9 0.012 1.389 0.012 14.937 0 28.949-3.962 41.042-10.892 11.73-6.849 21.364-17.032 27.57-29.249 6.52-12.961 10.229-27.773 10.229-43.451 0-0.617-0.006-1.232-0.017-1.846l0.001-11.534c0.016-0.654 0.025-1.425 0.025-2.198 0-15.626-3.672-30.394-10.2-43.488-6.147-12.077-15.868-22.243-27.773-29.013-12.48-6.897-26.95-10.85-42.345-10.85-0.235 0-0.469 0.001-0.703 0.003zM476.16 417.493v-142.613h25.173c0.779-0.040 1.692-0.062 2.61-0.062 15.783 0 30.011 6.656 40.030 17.313 10.059 12.212 16.141 27.975 16.141 45.159 0 1.422-0.042 2.835-0.124 4.236l0.009 10.473c0.087 1.328 0.137 2.88 0.137 4.443 0 16.529-5.545 31.764-14.877 43.944-9.414 10.551-23.252 17.274-38.66 17.274-0.877 0-1.748-0.022-2.614-0.065zM720.427 335.573h-76.373v-80.427h-24v182.187h112.747v-19.733h-88.747v-62.4h76.373z" />
<glyph unicode="&#xe917;" glyph-name="previdencia" d="M765.333 492.16c39.082 13.389 71.975 36.342 97.008 66.122 9.227 11.196 17.686 23.291 25.161 36.034 24.597 42.063 38.702 91.055 38.702 143.34 0 9.558-0.471 19.007-1.392 28.323-10.572-1.179-21.239-2.459-34.466-4.059-36.468-4.193-69.729-12.641-101.056-24.937-37.507-14.065-71.364-38.141-97.597-68.913q-5.72-7.056-10.947-13.883c-32.605-42.842-52.235-97.098-52.235-155.938 0-8.943 0.453-17.78 1.339-26.49 5.471 0.784 11.978 0.607 18.527 0.607 41.902 0 82.11 7.251 119.438 20.567zM578.027 457.6c-1.758 12.405-2.762 26.733-2.762 41.296 0 70.374 23.444 135.273 62.948 187.313q5.307 7.338 11.707 15.231c32.201 38.097 73.384 67.614 120.333 85.41 52.179 20.139 110.239 31.419 170.934 31.419 1.852 0 3.701-0.010 5.548-0.031l2.598 0.003c12.126-0.598 22.081-9.209 24.712-20.62 0.782-3.486 1.742-9.14 2.702-16.713 1.751-12.898 2.75-27.805 2.75-42.946 0-62.205-16.866-120.47-46.275-170.472-8.863-15.197-18.91-29.628-30.006-43.166-30.868-36.897-71.618-65.509-118.175-81.722-41.949-14.955-88.165-23.268-136.323-23.268-11.741 0-23.367 0.494-34.858 1.463-4.259-0.102-8.419 0.751-10.873 1.071-10.893 1.515-19.594 9.426-22.253 19.762-1.034 4.387-1.971 9.755-2.632 15.208zM703.040 238.933h-371.52l91.84-239.787h187.84zM629.333-54.080h-224c-11.288 0.029-20.926 7.068-24.791 16.992l-112.702 293.088c-1.106 2.818-1.747 6.081-1.747 9.493 0 14.704 11.901 26.629 26.597 26.667h449.070c14.699-0.038 26.6-11.962 26.6-26.667 0-3.413-0.641-6.676-1.809-9.675l-112.151-292.832c-3.963-10.070-13.604-17.067-24.879-17.067-0.066 0-0.132 0-0.198 0.001zM550.613 269.12s0 0.64 0 1.707c-0.167 2.661-0.263 5.771-0.263 8.903 0 5.807 0.328 11.538 0.966 17.174 1.935 17.391 5.689 33.866 11.089 49.575 19.092 53.169 51.048 99.448 92.16 135.551 22.996 20.993 47.925 39.986 74.467 56.648 9.743 6.060 14.701 14.392 14.701 23.882 0 14.728-11.939 26.667-26.667 26.667-5.237 0-10.122-1.51-14.243-4.118-31.509-19.844-58.984-40.943-84.345-64.3-47.65-42.054-84.637-95.909-106.402-156.987-9.836-27.455-15.047-56.090-15.047-85.941 0-3.944 0.091-7.867 0.271-11.766-0.020-1.688-0.020-3.394-0.020-4.568 1.825-13.242 13.068-23.332 26.667-23.332 14.859 0 26.905 12.046 26.905 26.905 0 1.26-0.087 2.5-0.254 3.714zM531.413 498.987c-2.7-10.521-11.4-18.432-22.153-19.931-3.020-0.016-8.034-0.976-14.967-1.509-12.184-1.059-26.361-1.664-40.68-1.664-58.564 0-114.767 10.104-166.963 28.664-55.087 19.197-104.348 53.776-141.805 98.566-13.324 16.169-25.519 33.597-36.298 51.956-35.444 60.491-55.771 130.961-55.771 206.177 0 18.647 1.249 37.002 3.669 54.987 0.942 7.074 2.116 13.687 2.969 17.634 2.666 11.591 12.621 20.202 24.684 20.798l3.262 0.002c2.485 0.041 5.417 0.064 8.355 0.064 23.902 0 47.445-1.535 70.537-4.511 47.654-5.489 93.614-17.167 136.893-34.178 55.729-20.992 105.752-56.739 144.428-102.404q8.214-10.117 15.361-19.931c47.218-62.132 75.644-140.788 75.644-226.084 0-17.583-1.208-34.885-3.546-51.825-0.931-5.568-2.27-11.915-3.917-18.137zM419.307 762.453q-6.187 8.64-13.12 16.96c-33.288 39.087-75.796 69.344-124.211 87.527-37.777 14.872-79.262 25.422-122.433 30.44-20.663 2.459-37.196 3.526-51.169 3.952-1.415-11.926-2.223-25.739-2.223-39.741 0-65.474 17.657-126.824 48.468-179.548 9.322-15.935 19.897-31.098 31.574-45.321 31.365-37.319 72.768-66.238 120.047-82.547 45.172-15.996 95.064-24.908 147.037-24.908 10.341 0 20.6 0.353 30.765 1.047-0.032 11.002 0.734 23.827 0.734 36.832 0 73.703-24.605 141.658-66.049 196.101zM537.493 256c3.52 8.936 6.825 19.816 9.314 31.003 25.353 111.184 4.766 235.13-95.074 351.29-21.114 24.326-43.543 46.248-67.641 66.225-5.5 4.501-11.388 6.768-17.805 6.768-14.728 0-26.667-11.939-26.667-26.667 0-8.17 3.674-15.482 9.46-20.374 22.748-18.825 43.083-38.687 61.688-60.093 88.111-102.819 105.818-209.486 84.271-304.099-1.6-7.147-3.413-13.547-5.12-18.88-0.96-2.987-1.707-4.907-1.92-5.653-1.642-3.361-2.602-7.313-2.602-11.489 0-14.728 11.939-26.667 26.667-26.667 11.86 0 21.911 7.742 25.376 18.447z" />
<glyph unicode="&#xe918;" glyph-name="seguros-previdencia" d="M263.893 76.8c0-75.935 61.558-137.493 137.493-137.493s137.493 61.558 137.493 137.493v302.080c0 14.728-11.939 26.667-26.667 26.667s-26.667-11.939-26.667-26.667v-302.080c0-46.48-37.68-84.16-84.16-84.16s-84.16 37.68-84.16 84.16c0 14.728-11.939 26.667-26.667 26.667s-26.667-11.939-26.667-26.667zM983.253 486.933c0-14.728-11.939-26.667-26.667-26.667h-892.587c-14.728 0-26.667 11.939-26.667 26.667 0 261.15 211.704 472.853 472.853 472.853s472.853-211.704 472.853-472.853zM510.4 906.667c-222.379-0.010-404.341-173.045-418.602-391.82l837.375-1.246c-14.326 220.028-196.298 393.067-418.685 393.067-0.031 0-0.062 0-0.093 0z" />
<glyph unicode="&#xe919;" glyph-name="servicos-internacionais" d="M966.507 449.387c-0.061 251.678-204.1 455.68-455.787 455.68-251.724 0-455.787-204.063-455.787-455.787 0-251.687 204.002-455.726 455.674-455.787 0.037 0 0.075 0 0.112 0 251.724 0 455.787 204.063 455.787 455.787 0 0.037 0 0.075 0 0.112zM1019.84 449.387c0-281.179-227.941-509.12-509.12-509.12s-509.12 227.941-509.12 509.12c0 281.142 227.88 509.059 509.008 509.12 0.037 0 0.075 0 0.112 0 281.179 0 509.12-227.941 509.12-509.12zM791.573 449.387c0 253.547-128.96 455.787-280.96 455.787s-280.96-202.667-280.96-455.787 128.96-455.893 280.96-455.893 280.96 202.24 280.96 455.893zM844.907 449.387c0-279.36-146.56-509.12-334.293-509.12s-334.293 229.76-334.293 509.12 146.56 509.12 334.293 509.12 334.293-229.76 334.293-509.12zM594.667 449.387c0 128-11.627 247.467-32 335.253-17.493 77.227-40.96 120.533-52.053 120.533s-34.56-43.307-51.947-120.64c-20.16-87.787-32-207.36-32-335.253s11.627-247.467 32-335.253c17.707-77.333 41.28-120.64 52.267-120.64s34.56 43.307 52.267 120.64c19.84 87.893 31.467 207.467 31.467 335.36zM648 449.387c0-285.44-51.307-509.12-137.387-509.12s-137.28 223.68-137.28 509.12 51.307 509.12 137.28 509.12 137.387-223.68 137.387-509.12zM28.16 422.72h965.013c14.728 0 26.667 11.939 26.667 26.667s-11.939 26.667-26.667 26.667h-965.013c-14.728 0-26.667-11.939-26.667-26.667s11.939-26.667 26.667-26.667z" />
<glyph unicode="&#xe91a;" glyph-name="seta-baixo" d="M968.213 690.027l-417.92-417.92c-10.466-10.389-24.883-16.809-40.8-16.809s-30.334 6.42-40.804 16.813l-417.81 417.917c-4.832 4.832-11.507 7.82-18.88 7.82-14.746 0-26.7-11.954-26.7-26.7 0-7.373 2.989-14.048 7.82-18.88l417.92-417.6c20.117-20.037 47.865-32.424 78.507-32.424s58.39 12.388 78.51 32.428l417.81 417.596c4.832 4.832 7.82 11.507 7.82 18.88 0 14.746-11.954 26.7-26.7 26.7-7.373 0-14.048-2.989-18.88-7.82z" />
<glyph unicode="&#xe91b;" glyph-name="tempo" d="M1023.147 448c-0.364-282.141-229.168-510.72-511.36-510.72-282.416 0-511.36 228.944-511.36 511.36s228.944 511.36 511.36 511.36c0.075 0 0.149 0 0.224 0 282.314-0.122 511.136-229.019 511.136-511.36 0-0.225 0-0.451 0-0.676zM969.813 448c0 0.063 0 0.138 0 0.213 0 252.961-205.066 458.027-458.027 458.027s-458.027-205.066-458.027-458.027c0-252.961 205.066-458.027 458.027-458.027 0.075 0 0.15 0 0.225 0 252.783 0.122 457.68 205.019 457.801 457.801zM485.227 690.88v-242.88c0-14.728 11.939-26.667 26.667-26.667s26.667 11.939 26.667 26.667v242.88c0 14.728-11.939 26.667-26.667 26.667s-26.667-11.939-26.667-26.667zM493.12 429.333l131.307-131.2c4.832-4.832 11.507-7.82 18.88-7.82 14.746 0 26.7 11.954 26.7 26.7 0 7.373-2.989 14.048-7.82 18.88l-131.413 131.2c-4.832 4.832-11.507 7.82-18.88 7.82-14.746 0-26.7-11.954-26.7-26.7 0-7.373 2.989-14.048 7.82-18.88z" />
<glyph unicode="&#xe91c;" glyph-name="transferencia-arquivo" d="M646.613 220.587v-189.227c0-22.032-17.861-39.893-39.893-39.893h-510.72c-22.032 0-39.893 17.861-39.893 39.893v720.32c0 22.032 17.861 39.893 39.893 39.893h283.52c0.003 0 0.006 0 0.009 0 11.041 0 21.033-4.485 28.257-11.732l227.201-227.628c7.184-7.197 11.627-17.133 11.627-28.107 0-0.019 0-0.037 0-0.056v-121.384c0-14.728 11.939-26.667 26.667-26.667s26.667 11.939 26.667 26.667v121.493c0 0.012 0 0.027 0 0.042 0 25.677-10.393 48.928-27.202 65.773l-227.198 227.518c-16.871 16.871-40.178 27.307-65.922 27.307-0.037 0-0.073 0-0.11 0h-283.514c-0.158 0.001-0.346 0.002-0.533 0.002-51.451 0-93.167-41.679-93.227-93.116v-720.326c0 0 0-0.001 0-0.002 0-51.488 41.739-93.227 93.227-93.227 0.188 0 0.375 0.001 0.562 0.002h510.691c51.488 0 93.227 41.739 93.227 93.227v189.227c0 14.728-11.939 26.667-26.667 26.667s-26.667-11.939-26.667-26.667zM652.907 578.347h-180.053c-21.561 0-39.040 17.479-39.040 39.040v181.973c0 14.728-11.939 26.667-26.667 26.667s-26.667-11.939-26.667-26.667v-181.973c0-51.016 41.357-92.373 92.373-92.373h180.053c14.728 0 26.667 11.939 26.667 26.667s-11.939 26.667-26.667 26.667zM770.88 220.587v-76.267c0-22.032-17.861-39.893-39.893-39.893h-40.533c-14.728 0-26.667-11.939-26.667-26.667s11.939-26.667 26.667-26.667h40.533c51.488 0 93.227 41.739 93.227 93.227v76.267c0 14.728-11.939 26.667-26.667 26.667s-26.667-11.939-26.667-26.667zM158.507 827.52v37.12c0 22.032 17.861 39.893 39.893 39.893h532.587c22.032 0 39.893-17.861 39.893-39.893v-461.867c0-14.728 11.939-26.667 26.667-26.667s26.667 11.939 26.667 26.667v461.867c0 51.488-41.739 93.227-93.227 93.227h-532.587c-51.488 0-93.227-41.739-93.227-93.227v-37.12c0-14.728 11.939-26.667 26.667-26.667s26.667 11.939 26.667 26.667zM407.147 285.227h579.52c14.728 0 26.667 11.939 26.667 26.667s-11.939 26.667-26.667 26.667h-579.52c-14.728 0-26.667-11.939-26.667-26.667s11.939-26.667 26.667-26.667zM908.16 257.6c-4.886-4.836-7.912-11.543-7.912-18.957 0-14.728 11.939-26.667 26.667-26.667 8.104 0 15.364 3.615 20.255 9.321l67.443 72.463c4.439 4.75 7.164 11.15 7.164 18.187s-2.725 13.437-7.178 18.202l-67.399 71.985c-4.88 5.198-11.795 8.437-19.467 8.437-14.733 0-26.677-11.944-26.677-26.677 0-7.062 2.744-13.482 7.223-18.254l50.333-53.319z" />
<glyph unicode="&#xe91d;" glyph-name="transferencias" d="M832 469.333c-4.832 4.832-7.82 11.507-7.82 18.88 0 14.746 11.954 26.7 26.7 26.7 7.373 0 14.048-2.989 18.88-7.82l129.707-130.027c9.427-9.612 15.246-22.793 15.246-37.333s-5.818-27.721-15.254-37.342l-129.805-129.911c-4.788-4.616-11.311-7.461-18.5-7.461-14.728 0-26.667 11.939-26.667 26.667 0 7.215 2.865 13.76 7.52 18.561l129.38 129.486zM850.773 366.72h-413.44c-14.728 0-26.667-11.939-26.667-26.667s11.939-26.667 26.667-26.667h413.44c14.728 0 26.667 11.939 26.667 26.667s-11.939 26.667-26.667 26.667zM183.36 695.36c4.832 4.832 7.82 11.507 7.82 18.88 0 14.746-11.954 26.7-26.7 26.7-7.373 0-14.048-2.989-18.88-7.82l-129.707-129.813c-9.427-9.612-15.246-22.793-15.246-37.333s5.818-27.721 15.254-37.342l129.805-129.911c4.832-4.832 11.507-7.82 18.88-7.82 14.746 0 26.7 11.954 26.7 26.7 0 7.373-2.989 14.048-7.82 18.88l-129.493 129.387zM180.267 538.88h397.227c14.728 0 26.667 11.939 26.667 26.667s-11.939 26.667-26.667 26.667h-397.227c-14.728 0-26.667-11.939-26.667-26.667s11.939-26.667 26.667-26.667z" />
<glyph unicode="&#xe91e;" glyph-name="OFX" d="M834.88 626.027c0 0 0 0 0 0 0 11.991-4.85 22.85-12.695 30.721l-237.012 237.439c-7.86 7.698-18.625 12.456-30.502 12.48h-318.938c-0.032 0-0.070 0-0.108 0-23.982 0-43.444-19.35-43.625-43.29v-833.617c0 0 0 0 0 0 0-24.094 19.532-43.627 43.627-43.627 0.038 0 0.075 0 0.112 0h555.514c24.094 0 43.627 19.532 43.627 43.627zM886.4 626.027v-596.267c0-52.607-42.646-95.253-95.253-95.253h-555.413c-52.607 0-95.253 42.646-95.253 95.253v833.6c0 52.607 42.646 95.253 95.253 95.253h318.933c0.003 0 0.007 0 0.011 0 26.327 0 50.16-10.681 67.401-27.946l236.588-237.334c17.138-17.205 27.733-40.937 27.733-67.144 0-0.057 0-0.114 0-0.171zM839.36 680.533h-187.733c-23.564 0-42.667 19.103-42.667 42.667v189.867c-0.897 13.525-12.087 24.155-25.76 24.155s-24.863-10.63-25.756-24.077l-0.004-189.838c0.182-51.902 42.268-93.913 94.181-93.973h187.739c13.525 0.897 24.155 12.087 24.155 25.76s-10.63 24.863-24.077 25.756zM425.707 334.613c0.009-0.503 0.014-1.097 0.014-1.692 0-15.919-3.584-31.001-9.989-44.483-5.727-12.151-15.018-22.54-26.526-29.704-11.357-6.882-24.722-10.853-39.015-10.853-0.489 0-0.976 0.005-1.463 0.014-0.194-0.004-0.508-0.006-0.823-0.006-14.386 0-27.845 3.966-39.344 10.865-11.25 6.9-20.439 16.911-26.349 28.836-6.766 13.273-10.689 28.445-10.85 44.518v9.226c-0.014 0.639-0.022 1.393-0.022 2.148 0 15.78 3.507 30.74 9.784 44.144 5.749 12.156 15.079 22.548 26.629 29.694 11.814 6.9 25.648 10.871 40.409 10.871s28.594-3.971 40.49-10.904c11.545-6.915 21.021-17.041 27.162-29.145 6.388-13.137 10.013-28.101 10.013-43.911 0-0.531-0.004-1.061-0.012-1.59zM383.040 341.973c0.042 0.935 0.066 2.030 0.066 3.132 0 13.526-3.628 26.204-9.963 37.116-4.808 7.831-13.692 13.212-23.833 13.212-0.367 0-0.732-0.007-1.096-0.021q-31.948 0.002-33.654-47.892v-12.907c-0.086-1.353-0.135-2.933-0.135-4.526 0-12.891 3.207-25.033 8.868-35.672 4.758-7.96 13.744-13.485 24.019-13.485 0.448 0 0.894 0.011 1.337 0.031 0.189-0.011 0.486-0.015 0.783-0.015 10.13 0 18.991 5.431 23.831 13.539 5.71 10.327 9.029 22.49 9.029 35.428 0 1.39-0.038 2.772-0.114 4.143zM558.827 320.64h-68.8v-70.080h-42.027v176.107h117.333v-32.747h-75.307v-40.533h68.373zM648.96 368l28.373 58.667h48l-49.173-87.253 50.56-88.747h-48.533l-29.547 58.667-29.973-59.093h-48.533l50.347 88.747-48.96 87.68h48.32z" />
<glyph unicode="&#xe91f;" glyph-name="seta-cima" d="M968.213 205.973l-417.92 417.92c-10.466 10.389-24.883 16.809-40.8 16.809s-30.334-6.42-40.804-16.813l0.004 0.003-417.813-417.92c-4.832-4.832-11.507-7.82-18.88-7.82-14.746 0-26.7 11.954-26.7 26.7 0 7.373 2.989 14.048 7.82 18.88l417.92 417.6c20.117 20.037 47.865 32.424 78.507 32.424s58.39-12.388 78.51-32.428l417.809-417.596c4.832-4.832 7.82-11.507 7.82-18.88 0-14.746-11.954-26.7-26.7-26.7-7.373 0-14.048 2.989-18.88 7.82v0z" />
<glyph unicode="&#xe920;" glyph-name="seta-direita" d="M269.973-8.213l417.92 417.92c10.389 10.466 16.809 24.883 16.809 40.8s-6.42 30.334-16.813 40.804l0.003-0.004-417.92 417.813c-4.832 4.832-7.82 11.507-7.82 18.88 0 14.746 11.954 26.7 26.7 26.7 7.373 0 14.048-2.989 18.88-7.82l417.6-417.92c20.037-20.117 32.424-47.865 32.424-78.507s-12.388-58.39-32.428-78.51l-417.596-417.809c-4.832-4.832-11.507-7.82-18.88-7.82-14.746 0-26.7 11.954-26.7 26.7 0 7.373 2.989 14.048 7.82 18.88v0z" />
<glyph unicode="&#xe921;" glyph-name="seta-esquerda" d="M754.027 904.213l-417.92-417.92c-10.389-10.466-16.809-24.883-16.809-40.8s6.42-30.334 16.813-40.804l-0.003 0.004 417.92-417.813c4.832-4.832 7.82-11.507 7.82-18.88 0-14.746-11.954-26.7-26.7-26.7-7.373 0-14.048 2.989-18.88 7.82v0l-417.6 417.92c-20.037 20.117-32.424 47.865-32.424 78.507s12.388 58.39 32.428 78.51l417.596 417.809c4.832 4.832 11.507 7.82 18.88 7.82 14.746 0 26.7-11.954 26.7-26.7 0-7.373-2.989-14.048-7.82-18.88v0z" />
</font>
</defs>
</svg>
